<svg width="22" height="16" fill="none" xmlns="http://www.w3.org/2000/svg"><path d="M21.72 6.814 19.196 3.97a1.1 1.1 0 0 0-.825-.37h-3.337V1.4c0-.607-.492-1.1-1.1-1.1H1.1C.493.3 0 .793 0 1.4v9.533a.367.367 0 0 0 .367.367h.366v1.1c.001.607.493 1.1 1.1 1.1h.763a2.563 2.563 0 0 0 5.075 0h6.658a2.563 2.563 0 0 0 5.075 0H20.9c.607 0 1.1-.493 1.1-1.1V7.545c0-.27-.1-.53-.28-.73ZM.734 10.567V1.4c0-.202.165-.366.367-.367h12.833c.203 0 .367.165.367.367v9.167H.733Zm1.863 2.2h-.763a.367.367 0 0 1-.366-.367v-1.1H3.34a2.56 2.56 0 0 0-.745 1.467Zm2.537 2.2a1.833 1.833 0 1 1 0-3.667 1.833 1.833 0 0 1 0 3.667Zm3.667-2.2H7.67a2.56 2.56 0 0 0-.744-1.467H8.8v1.467Zm3.3 0H9.533V11.3H12.1v1.467Zm2.23 0h-1.497V11.3h2.24a2.56 2.56 0 0 0-.744 1.467Zm2.537 2.2a1.833 1.833 0 1 1 0-3.667 1.833 1.833 0 0 1 0 3.667Zm4.4-2.567a.367.367 0 0 1-.367.367h-1.496a2.568 2.568 0 0 0-2.537-2.2h-1.834V4.333H16.5V8c0 .607.493 1.1 1.1 1.1h3.667v3.3Zm0-4.033H17.6A.367.367 0 0 1 17.233 8V4.333h1.137c.105 0 .206.044.276.123L21.173 7.3c.06.067.093.154.094.244v.822Z" fill="#956D84"/></svg>