<svg width="34" height="34" fill="none" xmlns="http://www.w3.org/2000/svg"><circle cx="17" cy="17" r="17" fill="#956D84"/><g clip-path="url(#a)"><path d="M18.063 24.969H15.5a.777.777 0 0 1-.776-.776v-5.78H13.23a.777.777 0 0 1-.776-.776v-2.476c0-.428.348-.776.776-.776h1.495v-1.24c0-1.23.386-2.276 1.117-3.026.733-.752 1.758-1.15 2.964-1.15l1.955.003c.427 0 .774.349.774.776v2.3a.777.777 0 0 1-.775.775l-1.316.001c-.401 0-.504.08-.525.105-.036.041-.08.157-.08.476v.98h1.822a.779.779 0 0 1 .783.776l-.001 2.476a.777.777 0 0 1-.776.776h-1.827v5.78a.777.777 0 0 1-.776.776Zm-2.4-.938H17.9v-6.038c0-.285.232-.518.518-.518h2.085v-2.152H18.42a.519.519 0 0 1-.518-.519v-1.4c0-.366.037-.782.314-1.096.334-.378.86-.422 1.228-.422h1.153V9.91l-1.791-.003c-1.938 0-3.143 1.24-3.143 3.238v1.66a.519.519 0 0 1-.518.518h-1.753v2.152h1.753c.286 0 .518.233.518.518v6.038ZM20.757 9.91Z" fill="#fff"/></g><defs><clipPath id="a"><path fill="#fff" transform="translate(9 9)" d="M0 0h15.969v16H0z"/></clipPath></defs></svg>