<svg width="27" height="27" fill="none" xmlns="http://www.w3.org/2000/svg"><circle cx="13.542" cy="13.542" r="13.458" fill="#956D84"/><g clip-path="url(#a)"><path d="M14.383 19.85h-2.029a.615.615 0 0 1-.614-.614V14.66h-1.184a.615.615 0 0 1-.614-.615v-1.96c0-.34.276-.615.614-.615h1.184v-.982c0-.973.306-1.801.884-2.394.58-.596 1.392-.911 2.347-.911l1.547.002c.338 0 .613.276.613.615v1.82a.615.615 0 0 1-.614.614h-1.041c-.318 0-.399.064-.416.084-.029.032-.063.124-.063.376v.776h1.442a.617.617 0 0 1 .62.615v1.96a.615.615 0 0 1-.615.615h-1.447v4.575a.615.615 0 0 1-.614.614Zm-1.9-.742h1.772v-4.78a.41.41 0 0 1 .41-.41h1.65l.001-1.704h-1.651a.41.41 0 0 1-.41-.41v-1.109c0-.29.03-.62.248-.868.265-.3.682-.334.972-.334h.914V7.928l-1.419-.002c-1.534 0-2.488.982-2.488 2.563v1.314a.41.41 0 0 1-.41.41h-1.387v1.705h1.387a.41.41 0 0 1 .41.41v4.78Zm4.034-11.18Z" fill="#fff"/></g><defs><clipPath id="a"><path fill="#fff" transform="translate(7.208 7.208)" d="M0 0h12.642v12.667H0z"/></clipPath></defs></svg>