<svg width="34" height="34" fill="none" xmlns="http://www.w3.org/2000/svg"><circle cx="17" cy="17" r="17" fill="#956D84"/><path d="M17.234 8.009c-3.782 0-7.374-.337-8.745 3.184-.567 1.455-.485 3.343-.485 6.047 0 2.373-.076 4.603.485 6.046 1.368 3.523 4.99 3.185 8.743 3.185 3.622 0 7.357.378 8.745-3.185.568-1.469.485-3.33.485-6.046 0-3.606.198-5.934-1.55-7.682-1.771-1.771-4.166-1.55-7.682-1.55h.004ZM17 9.5c7 0 8.5-.5 8 11.5-.5 4-3.794 4.211-7.766 4.211-6.956 0-7.934-.711-8.086-7.97C8.976 9 11.5 9.5 17 9.5Zm5.162 1.705a1.107 1.107 0 1 0 0 2.215 1.107 1.107 0 0 0 0-2.215Zm-4.928 1.294a4.74 4.74 0 0 0 0 9.48 4.738 4.738 0 0 0 4.739-4.739 4.74 4.74 0 0 0-4.739-4.74Zm0 1.664c4.068 0 4.073 6.154 0 6.154-4.066 0-4.073-6.154 0-6.154Z" fill="#fff"/></svg>