<svg width="27" height="27" fill="none" xmlns="http://www.w3.org/2000/svg"><circle cx="13.458" cy="13.542" r="13.458" fill="#956D84"/><path d="M13.644 5.779c-2.994 0-5.838-.262-6.924 2.47-.448 1.128-.383 2.594-.383 4.692 0 1.84-.06 3.571.383 4.69 1.084 2.734 3.95 2.472 6.922 2.472 2.868 0 5.824.292 6.923-2.472.45-1.14.384-2.582.384-4.69 0-2.798.157-4.605-1.227-5.96-1.402-1.375-3.298-1.202-6.081-1.202h.003Zm-.186 1.156c5.542 0 6.73-.388 6.334 8.923-.396 3.103-3.004 3.267-6.148 3.267-5.507 0-6.281-.552-6.401-6.184-.137-6.394 1.861-6.006 6.215-6.006Zm4.086 1.323a.868.868 0 0 0-.876.86c0 .474.393.858.877.858a.868.868 0 0 0 .876-.859.868.868 0 0 0-.877-.859Zm-3.9 1.005c-2.072 0-3.752 1.647-3.752 3.678 0 2.03 1.68 3.677 3.752 3.677s3.751-1.646 3.751-3.677-1.679-3.678-3.751-3.678Zm0 1.29c3.22 0 3.224 4.775 0 4.775-3.22 0-3.225-4.775 0-4.775Z" fill="#fff"/></svg>