<svg width="18" height="14" fill="none" xmlns="http://www.w3.org/2000/svg"><path d="M14.574 10.485a.287.287 0 0 1-.199-.08l-3.34-3.132a.29.29 0 1 1 .398-.423l3.34 3.133a.29.29 0 0 1-.2.502ZM3.426 10.485a.29.29 0 0 1-.2-.501L6.568 6.85a.29.29 0 0 1 .398.422l-3.34 3.133a.287.287 0 0 1-.2.08Z" fill="#956D84"/><path d="M16.549 13.398H1.45c-.8 0-1.451-.65-1.451-1.45V2.052C0 1.253.651.25 1.451.25H16.55C17.349.25 18 1.252 18 2.053v9.894c0 .8-.651 1.451-1.451 1.451ZM1.45 1.375c-.48 0-.326.198-.326.678v10.01c0 .48-.154.171.326.171H16.55c.48 0 .326.193.326-.287V1.937c0-.48.154-.562-.326-.562H1.45Z" fill="#956D84"/><path d="M9 8.458c-.386 0-.772-.128-1.066-.384L.482 1.572a.29.29 0 0 1-.029-.41c.107-.12.551-.454.672-.35L8.437 7c.371.323.755.323 1.125 0L16.875.812c-.252-.333.555.24.662.361a.29.29 0 0 1-.028.41l-7.443 6.49c-.295.257-.68.385-1.066.385Z" fill="#956D84"/></svg>