<svg width="19" height="18" fill="none" xmlns="http://www.w3.org/2000/svg"><path d="m1.45 1.317-.143.184a4.14 4.14 0 0 0-.589 1.038c-.14.369-.225.715-.264 1.059V3.6C.11 6.462 1.39 9.132 5.148 12.89c5.092 5.091 9.157 4.713 9.296 4.699.36-.044.707-.13 1.06-.267.38-.148.732-.349 1.036-.587l.146-.113.63-.618.002-.001c.426-.43.423-1.094.035-1.483l-2.785-2.786c-.39-.388-1.056-.39-1.483.038l-1.404 1.403-.212.213-.264-.145-.278-.155h-.001l.195-.35c-.886-.49-2.1-1.164-3.376-2.441l-6.294-8.98Zm0 0 .588-.591-.587.59ZM.058 3.553Z" stroke="#956D84" stroke-width=".8"/></svg>