<svg width="17" height="17" fill="none" xmlns="http://www.w3.org/2000/svg"><path d="m1.323 1.21-.127.162a3.636 3.636 0 0 0-.516.911 3.805 3.805 0 0 0-.232.93v.003c-.305 2.523.822 4.883 4.16 8.22M1.322 1.21l3.002 10.51.282-.284M1.323 1.21l.52-.523c.366-.365.93-.36 1.255-.035L5.575 3.13c.326.328.331.89-.033 1.256l-.412.412-.837.836-.217.216.152.265.112.2.02.036.005.01c.44.792 1.061 1.91 2.237 3.086 1.176 1.177 2.296 1.797 3.089 2.237l.248.138.263.145.213-.213 1.247-1.247c.364-.364.928-.36 1.255-.034l2.476 2.476c.327.328.332.89-.03 1.255l-.56.549-.128.1a3.623 3.623 0 0 1-.91.514c-.31.12-.614.196-.93.235-.122.012-3.718.344-8.228-4.165M1.323 1.21l3.284 10.226m.103-5.28-.02-.035c-.04-.071-.077-.14-.115-.205l.135.24Z" stroke="#956D84" stroke-width=".8"/></svg>