<svg width="34" height="34" fill="none" xmlns="http://www.w3.org/2000/svg"><circle cx="17" cy="17" r="17" fill="#956D84"/><g clip-path="url(#a)" fill="#fff"><path d="M25.51 18.803c.127-.595.19-1.2.19-1.803a8.644 8.644 0 0 0-2.548-6.152A8.643 8.643 0 0 0 17 8.3a8.72 8.72 0 0 0-1.803.19A5.045 5.045 0 0 0 13.033 8 5.038 5.038 0 0 0 8 13.032c0 .748.169 1.492.49 2.165-.126.595-.19 1.2-.19 1.803 0 2.324.905 4.509 2.548 6.152A8.643 8.643 0 0 0 17 25.7c.602 0 1.207-.064 1.803-.19.673.321 1.417.49 2.165.49A5.038 5.038 0 0 0 26 20.968a5.05 5.05 0 0 0-.49-2.165Zm-4.542 6.142a3.93 3.93 0 0 1-1.85-.457.528.528 0 0 0-.367-.046 7.687 7.687 0 0 1-1.75.203c-4.217 0-7.646-3.43-7.646-7.645 0-.586.068-1.175.204-1.75a.528.528 0 0 0-.047-.367 3.93 3.93 0 0 1-.457-1.85 3.982 3.982 0 0 1 3.978-3.978c.652 0 1.274.153 1.85.456.112.06.242.076.366.047A7.692 7.692 0 0 1 17 9.354c4.216 0 7.645 3.43 7.645 7.646a7.67 7.67 0 0 1-.203 1.75.527.527 0 0 0 .046.367c.304.576.457 1.198.457 1.85a3.982 3.982 0 0 1-3.977 3.978Z"/><path d="M17 12.923c1.556 0 2.87.813 2.87 1.775a.527.527 0 1 0 1.055 0c0-.796-.436-1.529-1.227-2.065-.728-.493-1.686-.765-2.698-.765s-1.97.272-2.698.765c-.791.536-1.227 1.27-1.227 2.065 0 .795.436 1.528 1.227 2.064.728.494 1.686.765 2.698.765 1.556 0 2.87.813 2.87 1.775s-1.314 1.775-2.87 1.775-2.87-.813-2.87-1.775a.527.527 0 1 0-1.055 0c0 .795.436 1.528 1.227 2.064.728.494 1.686.765 2.698.765s1.97-.271 2.698-.765c.79-.536 1.227-1.269 1.227-2.064 0-.795-.436-1.528-1.227-2.064-.728-.494-1.686-.765-2.698-.765-1.556 0-2.87-.813-2.87-1.775s1.314-1.775 2.87-1.775Z"/></g><defs><clipPath id="a"><path fill="#fff" transform="translate(8 8)" d="M0 0h18v18H0z"/></clipPath></defs></svg>