<svg width="27" height="27" fill="none" xmlns="http://www.w3.org/2000/svg"><circle cx="13.458" cy="13.458" r="13.458" fill="#956D84"/><g clip-path="url(#a)"><path d="M18.242 7.307a.909.909 0 0 0-.721-.324c-.16 0-.33.034-.504.1l-11.85 4.524c-.63.24-.714.6-.708.793.005.194.11.549.752.753a.503.503 0 0 0 .011.003l2.458.704 1.33 3.801c.18.518.588.84 1.062.84.298 0 .592-.125.85-.362l1.52-1.4 2.205 1.776.022.018.006.004c.245.19.512.29.774.29.51 0 .917-.377 1.036-.962l1.941-9.588c.078-.385.013-.73-.184-.97Zm-9.74 6.419 4.743-2.423-2.953 3.138a.409.409 0 0 0-.1.183l-.569 2.306-1.12-3.204Zm1.864 3.81a.738.738 0 0 1-.06.049l.529-2.14.96.774-1.43 1.317Zm7.256-9.422-1.941 9.588c-.019.092-.079.305-.232.305a.478.478 0 0 1-.269-.116l-2.499-2.012-.001-.001-1.487-1.197 4.27-4.538a.41.41 0 0 0-.485-.646l-7.023 3.588-2.492-.713L17.31 7.85c.1-.039.17-.047.21-.047.026 0 .07.003.087.024.022.026.05.117.015.287Z" fill="#fff"/></g><defs><clipPath id="a"><path fill="#fff" transform="translate(4.458 5.917)" d="M0 0h14v14H0z"/></clipPath></defs></svg>