<svg width="27" height="27" fill="none" xmlns="http://www.w3.org/2000/svg"><circle cx="13.458" cy="13.458" r="13.458" fill="#956D84"/><path d="M14.928 6h-2.857a5.433 5.433 0 0 0-5.427 5.426V14c0 2.228 1.37 4.23 3.428 5.046v1.668a.285.285 0 0 0 .477.212l1.657-1.5h2.722A5.433 5.433 0 0 0 20.355 14v-2.574A5.433 5.433 0 0 0 14.928 6Zm4.856 8a4.86 4.86 0 0 1-4.856 4.854h-2.832c-.071 0-.14.027-.192.074l-1.26 1.142v-1.222a.285.285 0 0 0-.191-.27A4.865 4.865 0 0 1 7.215 14v-2.574a4.86 4.86 0 0 1 4.856-4.855h2.857a4.86 4.86 0 0 1 4.856 4.855V14Z" fill="#fff"/><path d="m17.275 14.71-1.756-1.14a.855.855 0 0 0-1.185.251l-.083.127c-.76-.25-1.597-.572-2.099-2.024l.208-.18a.858.858 0 0 0 .084-1.21l-1.374-1.58a.286.286 0 0 0-.403-.028l-.862.75c-.757.658-.403 1.63-.287 1.95a.281.281 0 0 0 .019.041c.03.054.746 1.332 1.903 2.51 1.16 1.183 3.257 2.275 3.322 2.307a1.43 1.43 0 0 0 1.976-.42l.621-.958a.286.286 0 0 0-.084-.396Zm-1.017 1.043c-.258.396-.79.509-1.21.238-.02-.01-2.103-1.095-3.2-2.214a12.755 12.755 0 0 1-1.8-2.368c-.227-.635-.187-1.025.132-1.302l.647-.562 1.186 1.364a.283.283 0 0 1-.028.403l-.35.305a.285.285 0 0 0-.086.3c.598 1.942 1.76 2.323 2.608 2.601l.124.041a.285.285 0 0 0 .33-.115l.202-.312a.282.282 0 0 1 .395-.083l1.517.985-.467.719ZM14.152 10.64a.285.285 0 1 0-.157.55c.426.121.765.461.885.887a.286.286 0 0 0 .55-.155 1.868 1.868 0 0 0-1.278-1.281Z" fill="#fff"/><path d="M16.326 12.347a.286.286 0 0 0 .275-.363 3.628 3.628 0 0 0-2.482-2.488.285.285 0 1 0-.156.55 3.052 3.052 0 0 1 2.088 2.093c.036.126.15.208.275.208Z" fill="#fff"/><path d="M13.996 8.166a.285.285 0 1 0-.157.55 5.171 5.171 0 0 1 3.539 3.546.286.286 0 0 0 .55-.155 5.747 5.747 0 0 0-3.932-3.941Z" fill="#fff"/></svg>